<?xml version="1.0" encoding="UTF-8"?>
<svg id="Calque_2" data-name="Calque 2" xmlns="http://www.w3.org/2000/svg" viewBox="0 0 1000 1000">
  <defs>
    <style>
      .cls-1 {
        fill: #d60106;
      }
    </style>
  </defs>
  <g>
    <polygon class="cls-1" points="601.5 273.9 676.81 279.84 674.53 288.05 689.13 307.68 665.85 296.73 655.81 305.4 601.5 273.9"/>
    <path class="cls-1" d="M799.13,338.26l-87.6-60.19c-.9-.62-1.53-1.57-1.74-2.64l-1.51-7.54c-.28-1.41-1.12-2.64-2.33-3.41l-65.66-42.15,2.88-5.56c2.08-4,1.24-8.9-2.04-11.99l-62.32-58.67c-1.57-1.48-3.58-2.42-5.73-2.67l-191.06-22.65c-3.38-.4-5.46,3.58-3.2,6.13l12.1,13.65c1.91,2.15,4.28,3.83,6.94,4.92l125.58,51.29-141.59-44.55c-3.19-1-6.62-.91-9.75.26l-109.65,41.02c-3.32,1.24-2.81,6.08.69,6.6l169.47,25.42-133.89-5.76c-2.52-.11-4.97.84-6.76,2.61l-82.36,81.68c-6.66,6.61-.1,17.73,8.9,15.11l224.15-65.34-202.45,88.99c-3.25,1.43-5.54,4.43-6.06,7.94l-14.4,97.26c-1.32,8.94,8.65,15.14,16.09,10.01l232.83-160.83-45.19,53.86-131.53,90.24c-5.63,3.86-8.01,10.98-5.85,17.45l25.54,76.3c3.47,10.37,16.39,13.84,24.6,6.61l114.43-100.9c2.23-1.97,4.01-4.41,5.19-7.14l46.12-106.31-21.91,113.19-78.83,79.67c-4,4.05-3.71,10.65.64,14.32l82.24,69.36c4.76,4.01,12.01,2.6,14.92-2.9l58.31-110.26c1.09-2.06,1.44-4.43,1.01-6.72l-25.34-132.48,41.43,137.99c.56,1.85.43,3.84-.34,5.61l-25.65,58.38c-3.01,7.08-1.61,15.26,3.59,20.92l53.07,57.83c4.49,4.9,12.54,3.51,15.14-2.61l37.76-88.97c1.76-4.14,1.44-8.88-.86-12.75l-49.74-83.76,28.17,20.39,19.75,8.36,69.82,28.95c2.87,1.19,6.18.06,7.73-2.64l32.45-56.89-2.28-34.23,9.58-8.67,26.47-61.16ZM727.93,482.95l-12.32-26.02-41.08-16.43,70.29-26.47,7.3,26.47-24.19,42.45ZM753.49,393.94l-78.96,26.93-51.12-28.3,11.87-31.04-115.93-59.79,38.82-30.01c2.54-1.97,2.19-5.91-.67-7.38l-69.61-35.97c-2.93-1.51-6.41.61-6.41,3.91v20.42c0,1.34.28,2.66.83,3.88l16.52,36.95-31.47-31.47c-2.06-2.06-3.22-4.86-3.22-7.78v-42.77c0-3.59,3.6-6.06,6.95-4.77l108.07,41.6-14.61-28.3,70.75,11.87,52.05,33.16c2.56,1.63,3.43,4.96,2,7.64l-1.72,3.22c-1.43,2.67-.46,6,2.19,7.47l87.88,48.92-39.47,2.9c-4.11.3-6.02,5.24-3.18,8.23l28.04,29.5-9.58,21Z"/>
  </g>
  <g>
    <g>
      <polygon class="cls-1" points="200.87 811.11 295.83 704.45 352.48 704.45 352.48 811.11 263.86 811.11 284.91 786.11 319.88 786.11 319.88 731.98 309.6 731.98 239.01 811.11 200.87 811.11"/>
      <polygon class="cls-1" points="372.94 704.45 372.94 811.11 456.82 811.11 469.48 786.42 402.22 786.42 402.22 768.22 458.24 768.22 469.67 745.91 402.27 745.91 402.27 727.72 490.31 727.72 503.01 704.99 372.94 704.45"/>
      <polygon class="cls-1" points="540.01 704.69 526.87 727 595.72 727 595.72 738.87 585.9 745.68 530.51 745.68 499.81 765.78 476.71 810.87 601.57 810.87 620.88 786.19 519.44 786.04 523.87 776.38 533.2 769.89 588.75 769.73 615.66 748.84 626.26 723.68 615.18 704.69 540.01 704.69"/>
      <polygon class="cls-1" points="645.91 704.45 645.91 811.11 681.2 811.11 775.87 704.45 743.9 704.45 673.77 780.11 673.77 704.45 645.91 704.45"/>
    </g>
    <g>
      <path class="cls-1" d="M200.87,875.94l21.56-35.26h8.26l6.7,35.26h-7.35l-1.61-9.27h-14.31l-5.39,9.27h-7.86ZM217.54,860.83h9.92l-2.27-13-7.66,13Z"/>
      <path class="cls-1" d="M239.91,875.94l7.51-35.26,7.05-1.51-7.81,36.77h-6.75Z"/>
      <path class="cls-1" d="M256.93,875.94l-1.56-26.24h6.3l.65,16.92,8.66-16.92h5.69l1.51,16.92,7.86-16.92h6.45l-12.64,26.24h-6.5l-1.41-16.82-8.56,16.82h-6.45Z"/>
      <path class="cls-1" d="M299.55,876.24c-2.72,0-4.89-.66-6.5-1.99-1.61-1.33-2.42-3.1-2.42-5.31,0-1.81.44-3.36,1.33-4.63.89-1.28,2.16-2.27,3.8-2.97,1.64-.71,3.61-1.06,5.89-1.06,1.24,0,2.48.12,3.7.35,1.23.24,2.38.57,3.45,1.01l.3-1.36c.37-1.78.11-3.11-.78-4-.89-.89-2.41-1.33-4.56-1.33-.97,0-2.04.14-3.2.4-1.16.27-2.56.7-4.21,1.31l-1.66-5.19c1.95-.77,3.79-1.33,5.54-1.69,1.75-.35,3.41-.53,4.99-.53,2.65,0,4.84.44,6.57,1.31,1.73.87,2.95,2.12,3.65,3.75.71,1.63.81,3.59.3,5.87l-3.32,15.77h-6.65l.3-1.61c-1.04.64-2.1,1.12-3.17,1.44-1.07.32-2.2.48-3.37.48ZM301.86,871.36c.94,0,1.85-.13,2.72-.38.87-.25,1.69-.61,2.47-1.08l.86-3.83c-1.75-.84-3.66-1.26-5.74-1.26-1.58,0-2.83.32-3.75.96-.92.64-1.38,1.49-1.38,2.57,0,.94.43,1.68,1.28,2.22.86.54,2.04.81,3.55.81Z"/>
      <path class="cls-1" d="M318.08,886.72c-.74,0-1.44-.04-2.09-.13-.66-.08-1.28-.21-1.89-.38l1.21-5.89c.34.1.71.18,1.11.23.4.05.86.08,1.36.08,1.17,0,2.22-.27,3.15-.81.92-.54,1.74-1.36,2.44-2.47l.91-1.41-4.53-26.24h7.2l2.72,18.44,11.28-18.44h7.4l-18.54,29.47c-1.68,2.69-3.43,4.62-5.26,5.79-1.83,1.18-3.99,1.76-6.47,1.76Z"/>
      <path class="cls-1" d="M358.23,876.5c-2.42,0-4.73-.4-6.95-1.21-2.22-.81-4.05-1.9-5.49-3.27l3.88-4.38c1.41,1.21,2.83,2.12,4.26,2.72,1.43.6,2.88.91,4.36.91,1.38,0,2.49-.27,3.35-.81.86-.54,1.28-1.22,1.28-2.07,0-.6-.24-1.09-.71-1.46-.47-.37-1.19-.67-2.17-.91l-4.84-1.06c-2.15-.47-3.79-1.31-4.91-2.52-1.13-1.21-1.69-2.74-1.69-4.58s.42-3.3,1.26-4.56c.84-1.26,2.04-2.24,3.6-2.95,1.56-.7,3.4-1.06,5.52-1.06s4.15.34,6.09,1.03c1.95.69,3.69,1.69,5.24,3l-3.78,4.18c-1.31-1.01-2.64-1.77-4-2.29-1.36-.52-2.69-.78-4-.78-1.21,0-2.17.24-2.87.71-.71.47-1.06,1.11-1.06,1.91,0,.64.24,1.15.73,1.54.49.39,1.28.7,2.39.93l4.78,1.06c2.22.47,3.91,1.31,5.09,2.52,1.18,1.21,1.76,2.7,1.76,4.48,0,1.68-.49,3.19-1.46,4.53-.97,1.34-2.3,2.41-3.98,3.2-1.68.79-3.58,1.18-5.69,1.18Z"/>
      <path class="cls-1" d="M385.08,875.94l4.33-20.5h-5.69l1.21-5.74h5.69l.71-3.22c.6-2.72,1.8-4.8,3.58-6.25,1.78-1.44,4.08-2.17,6.9-2.17.84,0,1.72.07,2.64.2.92.13,1.67.34,2.24.6l-1.16,5.74c-.57-.2-1.14-.35-1.71-.45s-1.18-.15-1.81-.15c-1.14,0-2.04.25-2.69.76-.65.5-1.1,1.29-1.33,2.37l-.55,2.57h6.95l-1.21,5.74h-6.95l-4.38,20.5h-6.75Z"/>
      <path class="cls-1" d="M412.83,876.34c-2.05,0-3.79-.48-5.21-1.44-1.43-.96-2.43-2.26-3-3.9-.57-1.64-.64-3.53-.2-5.64l3.32-15.67h6.75l-3.17,15.01c-.37,1.75-.14,3.15.68,4.21.82,1.06,2.07,1.59,3.75,1.59,1.07,0,2.07-.21,3-.63.92-.42,1.75-1.02,2.49-1.79l3.93-18.39h6.75l-5.59,26.24h-6.75l.4-1.91c-2.18,1.54-4.57,2.32-7.15,2.32Z"/>
      <path class="cls-1" d="M431.67,875.94l5.59-26.24h6.75l-.55,2.62c.97-1.01,2.05-1.78,3.22-2.32,1.17-.54,2.42-.81,3.73-.81,1.44,0,2.53.24,3.27.71l-1.26,6.04c-.34-.24-.87-.45-1.61-.63-.74-.18-1.44-.28-2.12-.28-2.62,0-4.82,1.19-6.6,3.58l-3.63,17.33h-6.8Z"/>
      <path class="cls-1" d="M464.81,876.29c-2.96,0-5.08-.71-6.37-2.12-1.29-1.41-1.65-3.42-1.08-6.04l2.67-12.69h-5.29l1.21-5.74h5.29l1.41-6.7,7.1-1.56-1.76,8.26h7.3l-1.21,5.74h-7.3l-2.52,11.54c-.24,1.28-.1,2.19.4,2.74.5.55,1.48.83,2.92.83.54,0,1.06-.03,1.56-.1.5-.07,1.06-.17,1.66-.3l-1.21,5.59c-.6.14-1.36.26-2.27.38-.91.12-1.75.18-2.52.18Z"/>
      <path class="cls-1" d="M473.12,875.94l7.51-35.26,7.05-1.51-2.62,12.44c2.15-1.54,4.52-2.32,7.1-2.32,2.08,0,3.84.48,5.26,1.44,1.43.96,2.43,2.26,3,3.9.57,1.65.64,3.53.2,5.64l-3.32,15.67h-6.8l3.22-15.01c.34-1.75.1-3.15-.71-4.21-.81-1.06-2.05-1.59-3.73-1.59-1.08,0-2.07.2-3,.6-.92.4-1.76,1.01-2.49,1.81l-3.93,18.39h-6.75Z"/>
      <path class="cls-1" d="M517.19,876.45c-2.55,0-4.83-.53-6.82-1.59-2-1.06-3.57-2.54-4.71-4.43-1.14-1.9-1.71-4.04-1.71-6.42,0-2.01.37-3.91,1.11-5.69.74-1.78,1.76-3.35,3.07-4.71,1.31-1.36,2.82-2.42,4.53-3.17,1.71-.76,3.54-1.13,5.49-1.13,2.32,0,4.36.55,6.15,1.64,1.78,1.09,3.17,2.58,4.18,4.46,1.01,1.88,1.51,4.06,1.51,6.55,0,.37,0,.77-.03,1.21-.02.44-.09,1.09-.23,1.96h-19.04c.2,1.11.62,2.09,1.26,2.95.64.86,1.45,1.52,2.44,1.99.99.47,2.11.71,3.35.71,1.11,0,2.15-.17,3.12-.5.97-.34,1.83-.81,2.57-1.41l3.78,4.38c-1.61,1.14-3.21,1.97-4.79,2.47s-3.32.76-5.24.76ZM511.1,860.23h12.54c-.2-1.04-.57-1.95-1.11-2.72-.54-.77-1.21-1.38-2.01-1.81-.81-.44-1.71-.66-2.72-.66s-1.96.22-2.85.66c-.89.44-1.66,1.04-2.32,1.81-.65.77-1.17,1.68-1.54,2.72Z"/>
      <path class="cls-1" d="M531.4,875.94l5.59-26.24h6.75l-.55,2.62c.97-1.01,2.05-1.78,3.22-2.32,1.17-.54,2.42-.81,3.73-.81,1.44,0,2.53.24,3.27.71l-1.26,6.04c-.34-.24-.87-.45-1.61-.63-.74-.18-1.44-.28-2.12-.28-2.62,0-4.82,1.19-6.6,3.58l-3.63,17.33h-6.8Z"/>
      <path class="cls-1" d="M542.43,883.55l6.2-13.25h7l-8.06,13.25h-5.14Z"/>
      <path class="cls-1" d="M581.82,876.29c-2.96,0-5.08-.71-6.37-2.12-1.29-1.41-1.65-3.42-1.08-6.04l2.67-12.69h-5.29l1.21-5.74h5.29l1.41-6.7,7.1-1.56-1.76,8.26h7.3l-1.21,5.74h-7.3l-2.52,11.54c-.24,1.28-.1,2.19.4,2.74.5.55,1.48.83,2.92.83.54,0,1.06-.03,1.56-.1.5-.07,1.06-.17,1.66-.3l-1.21,5.59c-.6.14-1.36.26-2.27.38-.91.12-1.75.18-2.52.18Z"/>
      <path class="cls-1" d="M604.84,876.45c-2.45,0-4.65-.55-6.6-1.66s-3.48-2.62-4.61-4.53c-1.13-1.91-1.69-4.05-1.69-6.4,0-2.02.38-3.9,1.13-5.67.76-1.76,1.81-3.32,3.17-4.66s2.93-2.4,4.71-3.17c1.78-.77,3.66-1.16,5.64-1.16,2.45,0,4.64.55,6.57,1.66,1.93,1.11,3.47,2.61,4.61,4.51,1.14,1.9,1.71,4.04,1.71,6.42,0,2.01-.39,3.9-1.16,5.67-.77,1.76-1.84,3.32-3.2,4.66-1.36,1.34-2.91,2.4-4.66,3.17-1.75.77-3.63,1.16-5.64,1.16ZM605.14,870.45c1.07,0,2.07-.22,3-.65.92-.44,1.74-1.03,2.44-1.79.71-.76,1.26-1.64,1.66-2.67.4-1.02.6-2.09.6-3.2,0-1.38-.29-2.59-.86-3.63-.57-1.04-1.35-1.86-2.34-2.44-.99-.59-2.12-.88-3.4-.88-1.04,0-2.02.22-2.95.66-.92.44-1.75,1.03-2.47,1.79-.72.76-1.28,1.64-1.66,2.67-.39,1.02-.58,2.09-.58,3.2,0,1.34.28,2.54.83,3.6.55,1.06,1.33,1.88,2.32,2.47.99.59,2.12.88,3.4.88Z"/>
      <path class="cls-1" d="M634.15,886.67c-2.18,0-4.37-.32-6.55-.96-2.18-.64-4.08-1.53-5.69-2.67l3.12-5.14c1.48.97,2.97,1.72,4.48,2.24,1.51.52,2.99.78,4.43.78,3.29,0,5.26-1.54,5.89-4.63l.35-1.76c-1.85,1.04-3.85,1.56-5.99,1.56s-4.16-.52-5.92-1.56c-1.76-1.04-3.15-2.48-4.16-4.31-1.01-1.83-1.51-3.89-1.51-6.17,0-2.05.38-3.96,1.13-5.74.76-1.78,1.8-3.34,3.12-4.68,1.33-1.34,2.87-2.39,4.63-3.15,1.76-.76,3.63-1.13,5.62-1.13,1.54,0,2.99.23,4.33.68,1.34.45,2.52,1.13,3.53,2.04l.5-2.37h6.75l-5.74,27.35c-.67,3.12-2.06,5.51-4.16,7.15-2.1,1.64-4.83,2.47-8.18,2.47ZM636.02,870.35c2.05,0,3.88-.66,5.49-1.97l2.22-10.43c-.71-.81-1.61-1.46-2.72-1.96-1.11-.5-2.32-.76-3.63-.76-1.51,0-2.89.37-4.13,1.11-1.24.74-2.22,1.72-2.92,2.95-.71,1.23-1.06,2.61-1.06,4.16,0,1.31.29,2.49.86,3.53.57,1.04,1.37,1.86,2.39,2.47,1.02.6,2.19.91,3.5.91Z"/>
      <path class="cls-1" d="M666.84,876.45c-2.55,0-4.83-.53-6.82-1.59-2-1.06-3.57-2.54-4.71-4.43-1.14-1.9-1.71-4.04-1.71-6.42,0-2.01.37-3.91,1.11-5.69.74-1.78,1.76-3.35,3.07-4.71,1.31-1.36,2.82-2.42,4.53-3.17,1.71-.76,3.54-1.13,5.49-1.13,2.32,0,4.36.55,6.15,1.64,1.78,1.09,3.17,2.58,4.18,4.46,1.01,1.88,1.51,4.06,1.51,6.55,0,.37,0,.77-.03,1.21-.02.44-.09,1.09-.23,1.96h-19.04c.2,1.11.62,2.09,1.26,2.95.64.86,1.45,1.52,2.44,1.99.99.47,2.11.71,3.35.71,1.11,0,2.15-.17,3.12-.5.97-.34,1.83-.81,2.57-1.41l3.78,4.38c-1.61,1.14-3.21,1.97-4.79,2.47s-3.32.76-5.24.76ZM660.75,860.23h12.54c-.2-1.04-.57-1.95-1.11-2.72-.54-.77-1.21-1.38-2.01-1.81-.81-.44-1.71-.66-2.72-.66s-1.96.22-2.85.66c-.89.44-1.66,1.04-2.32,1.81-.65.77-1.17,1.68-1.54,2.72Z"/>
      <path class="cls-1" d="M692.43,876.29c-2.96,0-5.08-.71-6.37-2.12-1.29-1.41-1.65-3.42-1.08-6.04l2.67-12.69h-5.29l1.21-5.74h5.29l1.41-6.7,7.1-1.56-1.76,8.26h7.3l-1.21,5.74h-7.3l-2.52,11.54c-.24,1.28-.1,2.19.4,2.74.5.55,1.48.83,2.92.83.54,0,1.06-.03,1.56-.1.5-.07,1.06-.17,1.66-.3l-1.21,5.59c-.6.14-1.36.26-2.27.38-.91.12-1.75.18-2.52.18Z"/>
      <path class="cls-1" d="M700.74,875.94l7.51-35.26,7.05-1.51-2.62,12.44c2.15-1.54,4.52-2.32,7.1-2.32,2.08,0,3.84.48,5.26,1.44,1.43.96,2.43,2.26,3,3.9.57,1.65.64,3.53.2,5.64l-3.32,15.67h-6.8l3.22-15.01c.34-1.75.1-3.15-.71-4.21-.81-1.06-2.05-1.59-3.73-1.59-1.08,0-2.07.2-3,.6-.92.4-1.76,1.01-2.49,1.81l-3.93,18.39h-6.75Z"/>
      <path class="cls-1" d="M744.82,876.45c-2.55,0-4.83-.53-6.82-1.59-2-1.06-3.57-2.54-4.71-4.43-1.14-1.9-1.71-4.04-1.71-6.42,0-2.01.37-3.91,1.11-5.69.74-1.78,1.76-3.35,3.07-4.71,1.31-1.36,2.82-2.42,4.53-3.17,1.71-.76,3.54-1.13,5.49-1.13,2.32,0,4.36.55,6.15,1.64,1.78,1.09,3.17,2.58,4.18,4.46,1.01,1.88,1.51,4.06,1.51,6.55,0,.37,0,.77-.03,1.21-.02.44-.09,1.09-.23,1.96h-19.04c.2,1.11.62,2.09,1.26,2.95.64.86,1.45,1.52,2.44,1.99.99.47,2.11.71,3.35.71,1.11,0,2.15-.17,3.12-.5.97-.34,1.83-.81,2.57-1.41l3.78,4.38c-1.61,1.14-3.21,1.97-4.79,2.47-1.58.5-3.32.76-5.24.76ZM738.72,860.23h12.54c-.2-1.04-.57-1.95-1.11-2.72-.54-.77-1.21-1.38-2.01-1.81-.81-.44-1.71-.66-2.72-.66s-1.96.22-2.85.66c-.89.44-1.66,1.04-2.32,1.81-.65.77-1.17,1.68-1.54,2.72Z"/>
      <path class="cls-1" d="M759.02,875.94l5.59-26.24h6.75l-.55,2.62c.97-1.01,2.05-1.78,3.22-2.32,1.17-.54,2.42-.81,3.73-.81,1.44,0,2.53.24,3.27.71l-1.26,6.04c-.34-.24-.87-.45-1.61-.63-.74-.18-1.44-.28-2.12-.28-2.62,0-4.82,1.19-6.6,3.58l-3.63,17.33h-6.8Z"/>
    </g>
  </g>
</svg>