<svg xmlns="http://www.w3.org/2000/svg" id="Calque_2" data-name="Calque 2" viewBox="0 0 1000 500">
  <defs>
    <style>
      .cls-1 {
        fill: #d60106;
      }
    </style>
  </defs>
  <g>
    <g>
      <polygon class="cls-1" points="101.16 276 179.09 188.46 225.59 188.46 225.59 276 152.86 276 170.13 255.48 198.84 255.48 198.84 211.06 190.39 211.06 132.46 276 101.16 276"/>
      <polygon class="cls-1" points="242.38 188.46 242.38 276 311.22 276 321.61 255.74 266.41 255.74 266.41 240.8 312.39 240.8 321.77 222.49 266.45 222.49 266.45 207.56 338.71 207.56 349.13 188.9 242.38 188.46"/>
      <polygon class="cls-1" points="379.5 188.66 368.72 206.97 425.22 206.97 425.22 216.71 417.16 222.3 371.7 222.3 346.51 238.79 327.54 275.8 430.02 275.8 445.87 255.55 362.61 255.42 366.25 247.49 373.91 242.17 419.5 242.04 441.58 224.89 450.28 204.24 441.19 188.66 379.5 188.66"/>
      <polygon class="cls-1" points="466.41 188.46 466.41 276 495.38 276 573.07 188.46 546.83 188.46 489.27 250.55 489.27 188.46 466.41 188.46"/>
    </g>
    <g>
      <path class="cls-1" d="M101.16,329.2l17.69-28.94h6.78l5.5,28.94h-6.04l-1.32-7.61h-11.74l-4.42,7.61h-6.45ZM114.85,316.8h8.14l-1.86-10.67-6.28,10.67Z"/>
      <path class="cls-1" d="M133.2,329.2l6.16-28.94,5.79-1.24-6.41,30.18h-5.54Z"/>
      <path class="cls-1" d="M147.17,329.2l-1.28-21.54h5.17l.54,13.89,7.11-13.89h4.67l1.24,13.89,6.45-13.89h5.29l-10.38,21.54h-5.33l-1.16-13.81-7.03,13.81h-5.29Z"/>
      <path class="cls-1" d="M182.15,329.45c-2.23,0-4.01-.54-5.33-1.63-1.32-1.09-1.98-2.54-1.98-4.36,0-1.49.36-2.76,1.1-3.8.73-1.05,1.77-1.86,3.12-2.44,1.35-.58,2.96-.87,4.84-.87,1.02,0,2.03.1,3.04.29,1.01.19,1.95.47,2.83.83l.25-1.12c.3-1.46.09-2.56-.64-3.29-.73-.73-1.98-1.1-3.74-1.1-.8,0-1.67.11-2.62.33-.95.22-2.1.58-3.45,1.07l-1.36-4.26c1.6-.63,3.11-1.1,4.55-1.38,1.43-.29,2.8-.43,4.09-.43,2.18,0,3.98.36,5.4,1.07,1.42.72,2.42,1.74,3,3.08.58,1.34.66,2.94.25,4.82l-2.73,12.94h-5.46l.25-1.32c-.85.52-1.72.92-2.6,1.18-.88.26-1.81.39-2.77.39ZM184.05,325.44c.77,0,1.51-.1,2.23-.31.72-.21,1.39-.5,2.03-.89l.7-3.14c-1.43-.69-3-1.03-4.71-1.03-1.3,0-2.32.26-3.08.79-.76.52-1.14,1.23-1.14,2.11,0,.77.35,1.38,1.05,1.82.7.44,1.67.66,2.91.66Z"/>
      <path class="cls-1" d="M197.36,338.05c-.61,0-1.18-.03-1.72-.1-.54-.07-1.05-.17-1.55-.31l.99-4.84c.28.08.58.14.91.19.33.04.7.06,1.12.06.96,0,1.82-.22,2.58-.66.76-.44,1.43-1.12,2-2.03l.74-1.16-3.72-21.54h5.91l2.23,15.13,9.26-15.13h6.08l-15.21,24.18c-1.38,2.2-2.82,3.79-4.32,4.75-1.5.96-3.27,1.45-5.31,1.45Z"/>
      <path class="cls-1" d="M230.31,329.66c-1.98,0-3.89-.33-5.71-.99-1.82-.66-3.32-1.56-4.51-2.69l3.18-3.6c1.16.99,2.32,1.74,3.49,2.23,1.17.5,2.36.74,3.58.74,1.13,0,2.05-.22,2.75-.66.7-.44,1.05-1.01,1.05-1.69,0-.5-.19-.9-.58-1.2-.39-.3-.98-.55-1.78-.74l-3.97-.87c-1.76-.39-3.11-1.07-4.03-2.07-.92-.99-1.38-2.25-1.38-3.76s.34-2.71,1.03-3.74c.69-1.03,1.67-1.84,2.96-2.42,1.28-.58,2.79-.87,4.53-.87s3.4.28,5,.85c1.6.57,3.03,1.38,4.3,2.46l-3.1,3.43c-1.07-.83-2.17-1.45-3.29-1.88-1.12-.43-2.21-.64-3.29-.64-.99,0-1.78.19-2.36.58-.58.39-.87.91-.87,1.57,0,.52.2.94.6,1.26.4.32,1.05.57,1.96.76l3.93.87c1.82.39,3.21,1.07,4.18,2.07.96.99,1.45,2.22,1.45,3.68,0,1.38-.4,2.62-1.2,3.72-.8,1.1-1.89,1.98-3.27,2.63-1.38.65-2.94.97-4.67.97Z"/>
      <path class="cls-1" d="M252.34,329.2l3.55-16.83h-4.67l.99-4.71h4.67l.58-2.65c.5-2.23,1.47-3.94,2.94-5.13,1.46-1.18,3.35-1.78,5.66-1.78.69,0,1.41.06,2.17.17.76.11,1.37.28,1.84.5l-.95,4.71c-.47-.17-.94-.29-1.41-.37s-.96-.12-1.49-.12c-.94,0-1.67.21-2.21.62-.54.41-.9,1.06-1.1,1.94l-.45,2.11h5.7l-.99,4.71h-5.7l-3.6,16.83h-5.54Z"/>
      <path class="cls-1" d="M275.12,329.53c-1.68,0-3.11-.39-4.28-1.18-1.17-.79-1.99-1.85-2.46-3.2-.47-1.35-.52-2.89-.16-4.63l2.73-12.86h5.54l-2.6,12.32c-.3,1.43-.12,2.58.56,3.45.68.87,1.7,1.3,3.08,1.3.88,0,1.7-.17,2.46-.52.76-.34,1.44-.83,2.05-1.47l3.22-15.09h5.54l-4.59,21.54h-5.54l.33-1.57c-1.79,1.27-3.75,1.9-5.87,1.9Z"/>
      <path class="cls-1" d="M290.58,329.2l4.59-21.54h5.54l-.46,2.15c.8-.83,1.68-1.46,2.65-1.9.96-.44,1.98-.66,3.06-.66,1.18,0,2.08.19,2.69.58l-1.03,4.96c-.28-.19-.72-.37-1.32-.52-.61-.15-1.19-.23-1.74-.23-2.15,0-3.96.98-5.42,2.94l-2.98,14.22h-5.58Z"/>
      <path class="cls-1" d="M317.78,329.49c-2.43,0-4.17-.58-5.23-1.74-1.06-1.16-1.36-2.81-.89-4.96l2.19-10.42h-4.34l.99-4.71h4.34l1.16-5.5,5.83-1.28-1.45,6.78h5.99l-.99,4.71h-5.99l-2.07,9.47c-.19,1.05-.08,1.8.33,2.25.41.46,1.21.68,2.4.68.44,0,.87-.03,1.28-.08.41-.05.87-.14,1.36-.25l-.99,4.59c-.5.11-1.12.21-1.86.31-.74.1-1.43.15-2.07.15Z"/>
      <path class="cls-1" d="M324.6,329.2l6.16-28.94,5.79-1.24-2.15,10.21c1.76-1.27,3.71-1.9,5.83-1.9,1.71,0,3.15.39,4.32,1.18,1.17.78,1.99,1.85,2.46,3.2.47,1.35.52,2.89.16,4.63l-2.73,12.86h-5.58l2.65-12.32c.28-1.43.08-2.58-.58-3.45-.66-.87-1.68-1.3-3.06-1.3-.88,0-1.7.17-2.46.5-.76.33-1.44.83-2.05,1.49l-3.22,15.09h-5.54Z"/>
      <path class="cls-1" d="M360.77,329.62c-2.09,0-3.96-.43-5.6-1.3-1.64-.87-2.93-2.08-3.87-3.64-.94-1.56-1.41-3.31-1.41-5.27,0-1.65.3-3.21.91-4.67.61-1.46,1.45-2.75,2.52-3.87,1.07-1.12,2.31-1.98,3.72-2.6,1.41-.62,2.91-.93,4.51-.93,1.9,0,3.58.45,5.04,1.34,1.46.9,2.6,2.12,3.43,3.66.83,1.54,1.24,3.34,1.24,5.37,0,.3,0,.63-.02.99-.01.36-.08.9-.19,1.61h-15.63c.17.91.51,1.72,1.03,2.42.52.7,1.19,1.25,2,1.63.81.39,1.73.58,2.75.58.91,0,1.76-.14,2.56-.41.8-.28,1.5-.66,2.11-1.16l3.1,3.6c-1.32.94-2.63,1.61-3.93,2.03s-2.73.62-4.3.62ZM355.77,316.31h10.29c-.16-.85-.47-1.6-.91-2.23-.44-.63-.99-1.13-1.65-1.49-.66-.36-1.41-.54-2.23-.54s-1.61.18-2.34.54c-.73.36-1.36.85-1.9,1.49-.54.63-.96,1.38-1.26,2.23Z"/>
      <path class="cls-1" d="M372.43,329.2l4.59-21.54h5.54l-.46,2.15c.8-.83,1.68-1.46,2.65-1.9.96-.44,1.98-.66,3.06-.66,1.18,0,2.08.19,2.69.58l-1.03,4.96c-.28-.19-.72-.37-1.32-.52-.61-.15-1.19-.23-1.74-.23-2.15,0-3.96.98-5.42,2.94l-2.98,14.22h-5.58Z"/>
      <path class="cls-1" d="M381.48,335.45l5.08-10.87h5.75l-6.61,10.87h-4.22Z"/>
      <path class="cls-1" d="M413.81,329.49c-2.43,0-4.17-.58-5.23-1.74-1.06-1.16-1.36-2.81-.89-4.96l2.19-10.42h-4.34l.99-4.71h4.34l1.16-5.5,5.83-1.28-1.45,6.78h5.99l-.99,4.71h-5.99l-2.07,9.47c-.19,1.05-.08,1.8.33,2.25.41.46,1.21.68,2.4.68.44,0,.87-.03,1.28-.08.41-.05.87-.14,1.36-.25l-.99,4.59c-.5.11-1.12.21-1.86.31-.74.1-1.43.15-2.07.15Z"/>
      <path class="cls-1" d="M432.7,329.62c-2.01,0-3.82-.46-5.42-1.36s-2.86-2.15-3.78-3.72c-.92-1.57-1.38-3.32-1.38-5.25,0-1.65.31-3.2.93-4.65.62-1.45,1.49-2.72,2.6-3.82,1.12-1.1,2.4-1.97,3.87-2.6,1.46-.63,3-.95,4.63-.95,2.01,0,3.81.45,5.39,1.36,1.58.91,2.85,2.14,3.78,3.7.94,1.56,1.41,3.31,1.41,5.27,0,1.65-.32,3.2-.95,4.65-.63,1.45-1.51,2.72-2.62,3.82-1.12,1.1-2.39,1.97-3.82,2.6-1.43.63-2.98.95-4.63.95ZM432.95,324.7c.88,0,1.7-.18,2.46-.54.76-.36,1.43-.85,2-1.47.58-.62,1.03-1.35,1.36-2.19.33-.84.5-1.72.5-2.62,0-1.13-.23-2.12-.7-2.98-.47-.85-1.11-1.52-1.92-2-.81-.48-1.74-.72-2.79-.72-.85,0-1.66.18-2.42.54-.76.36-1.43.85-2.03,1.47-.59.62-1.05,1.35-1.36,2.19-.32.84-.48,1.72-.48,2.62,0,1.1.23,2.09.68,2.96.46.87,1.09,1.54,1.9,2.03.81.48,1.74.72,2.79.72Z"/>
      <path class="cls-1" d="M456.76,338.01c-1.79,0-3.58-.26-5.37-.79-1.79-.52-3.35-1.25-4.67-2.19l2.56-4.22c1.21.8,2.44,1.41,3.68,1.84,1.24.43,2.45.64,3.64.64,2.7,0,4.31-1.27,4.84-3.8l.29-1.45c-1.52.85-3.16,1.28-4.92,1.28s-3.41-.43-4.86-1.28c-1.45-.85-2.58-2.03-3.41-3.53-.83-1.5-1.24-3.19-1.24-5.06,0-1.68.31-3.25.93-4.71.62-1.46,1.47-2.74,2.56-3.84,1.09-1.1,2.36-1.96,3.8-2.58,1.45-.62,2.98-.93,4.61-.93,1.27,0,2.45.19,3.56.56,1.1.37,2.07.93,2.89,1.67l.41-1.94h5.54l-4.71,22.45c-.55,2.56-1.69,4.52-3.41,5.87-1.72,1.35-3.96,2.03-6.72,2.03ZM458.29,324.62c1.68,0,3.18-.54,4.51-1.61l1.82-8.56c-.58-.66-1.32-1.2-2.23-1.61-.91-.41-1.9-.62-2.98-.62-1.24,0-2.37.3-3.39.91s-1.82,1.41-2.4,2.42c-.58,1.01-.87,2.14-.87,3.41,0,1.07.23,2.04.7,2.89.47.85,1.12,1.53,1.96,2.03.84.5,1.8.74,2.87.74Z"/>
      <path class="cls-1" d="M483.59,329.62c-2.09,0-3.96-.43-5.6-1.3-1.64-.87-2.93-2.08-3.87-3.64-.94-1.56-1.41-3.31-1.41-5.27,0-1.65.3-3.21.91-4.67.61-1.46,1.45-2.75,2.52-3.87,1.07-1.12,2.31-1.98,3.72-2.6,1.41-.62,2.91-.93,4.51-.93,1.9,0,3.58.45,5.04,1.34,1.46.9,2.6,2.12,3.43,3.66.83,1.54,1.24,3.34,1.24,5.37,0,.3,0,.63-.02.99-.01.36-.08.9-.19,1.61h-15.63c.17.91.51,1.72,1.03,2.42.52.7,1.19,1.25,2,1.63.81.39,1.73.58,2.75.58.91,0,1.76-.14,2.56-.41.8-.28,1.5-.66,2.11-1.16l3.1,3.6c-1.32.94-2.63,1.61-3.93,2.03s-2.73.62-4.3.62ZM478.59,316.31h10.29c-.16-.85-.47-1.6-.91-2.23-.44-.63-.99-1.13-1.65-1.49-.66-.36-1.41-.54-2.23-.54s-1.61.18-2.34.54c-.73.36-1.36.85-1.9,1.49-.54.63-.96,1.38-1.26,2.23Z"/>
      <path class="cls-1" d="M504.59,329.49c-2.43,0-4.17-.58-5.23-1.74-1.06-1.16-1.36-2.81-.89-4.96l2.19-10.42h-4.34l.99-4.71h4.34l1.16-5.5,5.83-1.28-1.45,6.78h5.99l-.99,4.71h-5.99l-2.07,9.47c-.19,1.05-.08,1.8.33,2.25.41.46,1.21.68,2.4.68.44,0,.87-.03,1.28-.08.41-.05.87-.14,1.36-.25l-.99,4.59c-.5.11-1.12.21-1.86.31-.74.1-1.43.15-2.07.15Z"/>
      <path class="cls-1" d="M511.41,329.2l6.16-28.94,5.79-1.24-2.15,10.21c1.76-1.27,3.71-1.9,5.83-1.9,1.71,0,3.15.39,4.32,1.18,1.17.78,1.99,1.85,2.46,3.2.47,1.35.52,2.89.16,4.63l-2.73,12.86h-5.58l2.65-12.32c.28-1.43.08-2.58-.58-3.45-.66-.87-1.68-1.3-3.06-1.3-.88,0-1.7.17-2.46.5-.76.33-1.44.83-2.05,1.49l-3.22,15.09h-5.54Z"/>
      <path class="cls-1" d="M547.58,329.62c-2.09,0-3.96-.43-5.6-1.3-1.64-.87-2.93-2.08-3.87-3.64-.94-1.56-1.41-3.31-1.41-5.27,0-1.65.3-3.21.91-4.67.61-1.46,1.45-2.75,2.52-3.87,1.07-1.12,2.31-1.98,3.72-2.6,1.41-.62,2.91-.93,4.51-.93,1.9,0,3.58.45,5.04,1.34,1.46.9,2.6,2.12,3.43,3.66.83,1.54,1.24,3.34,1.24,5.37,0,.3,0,.63-.02.99-.01.36-.08.9-.19,1.61h-15.63c.17.91.51,1.72,1.03,2.42.52.7,1.19,1.25,2,1.63.81.39,1.73.58,2.75.58.91,0,1.76-.14,2.56-.41.8-.28,1.5-.66,2.11-1.16l3.1,3.6c-1.32.94-2.63,1.61-3.93,2.03-1.3.41-2.73.62-4.3.62ZM542.58,316.31h10.29c-.16-.85-.47-1.6-.91-2.23-.44-.63-.99-1.13-1.65-1.49-.66-.36-1.41-.54-2.23-.54s-1.61.18-2.34.54c-.73.36-1.36.85-1.9,1.49-.54.63-.96,1.38-1.26,2.23Z"/>
      <path class="cls-1" d="M559.24,329.2l4.59-21.54h5.54l-.46,2.15c.8-.83,1.68-1.46,2.65-1.9.96-.44,1.98-.66,3.06-.66,1.18,0,2.08.19,2.69.58l-1.03,4.96c-.28-.19-.72-.37-1.32-.52-.61-.15-1.19-.23-1.74-.23-2.15,0-3.96.98-5.42,2.94l-2.98,14.22h-5.58Z"/>
    </g>
  </g>
  <g>
    <path class="cls-1" d="M873.22,236.81l-31.04-21.33c-.32-.22-.54-.55-.62-.93l-.53-2.67c-.1-.5-.4-.94-.83-1.21l-23.27-14.94,1.02-1.97c.74-1.42.44-3.15-.72-4.25l-22.09-20.79c-.56-.53-1.27-.86-2.03-.95l-67.71-8.03c-1.2-.14-1.94,1.27-1.14,2.17l4.29,4.84c.68.76,1.52,1.36,2.46,1.74l44.51,18.18-50.18-15.79c-1.13-.36-2.35-.32-3.45.09l-38.86,14.54c-1.18.44-1,2.15.25,2.34l60.06,9.01-47.45-2.04c-.89-.04-1.76.3-2.4.93l-29.19,28.95c-2.36,2.34-.04,6.29,3.16,5.35l79.44-23.16-71.75,31.54c-1.15.51-1.96,1.57-2.15,2.81l-5.1,34.47c-.47,3.17,3.07,5.37,5.7,3.55l82.52-57-16.01,19.09-46.61,31.98c-1.99,1.37-2.84,3.89-2.07,6.18l9.05,27.04c1.23,3.68,5.81,4.91,8.72,2.34l40.55-35.76c.79-.7,1.42-1.56,1.84-2.53l16.35-37.68-7.76,40.12-27.94,28.23c-1.42,1.43-1.31,3.77.23,5.08l29.15,24.58c1.69,1.42,4.25.92,5.29-1.03l20.66-39.08c.39-.73.51-1.57.36-2.38l-8.98-46.95,14.68,48.91c.2.66.15,1.36-.12,1.99l-9.09,20.69c-1.07,2.51-.57,5.41,1.27,7.42l18.81,20.5c1.59,1.74,4.45,1.24,5.37-.92l13.38-31.53c.62-1.47.51-3.15-.3-4.52l-17.63-29.68,9.98,7.23,7,2.96,24.75,10.26c1.02.42,2.19.02,2.74-.94l11.5-20.16-.81-12.13,3.4-3.07,9.38-21.68ZM847.98,288.09l-4.37-9.22-14.56-5.82,24.91-9.38,2.59,9.38-8.57,15.04ZM857.04,256.54l-27.98,9.54-18.12-10.03,4.21-11-41.09-21.19,13.76-10.64c.9-.7.77-2.09-.24-2.62l-24.67-12.75c-1.04-.54-2.27.22-2.27,1.38v7.24c0,.47.1.94.29,1.37l5.85,13.09-11.15-11.15c-.73-.73-1.14-1.72-1.14-2.76v-15.16c0-1.27,1.28-2.15,2.46-1.69l38.3,14.74-5.18-10.03,25.07,4.21,18.45,11.75c.91.58,1.22,1.76.71,2.71l-.61,1.14c-.51.95-.16,2.13.78,2.65l31.15,17.34-13.99,1.03c-1.46.11-2.13,1.86-1.13,2.92l9.94,10.45-3.4,7.44Z"/>
    <polygon class="cls-1" points="803.18 214 829.87 216.1 829.06 219.02 834.23 225.97 825.98 222.09 822.42 225.16 803.18 214"/>
  </g>
</svg>
