<svg xmlns="http://www.w3.org/2000/svg" id="Calque_2" data-name="Calque 2" viewBox="0 0 1000 272.35">
  <defs>
    <style>
      .cls-1 {
        fill: #d60106;
      }
    </style>
  </defs>
  <g>
    <g>
      <polygon class="cls-1" points="8.19 173.63 104.89 65 162.59 65 162.59 173.63 72.33 173.63 93.77 148.17 129.39 148.17 129.39 93.05 118.91 93.05 47.03 173.63 8.19 173.63"/>
      <polygon class="cls-1" points="183.42 65 183.42 173.63 268.84 173.63 281.73 148.49 213.23 148.49 213.23 129.95 270.29 129.95 281.92 107.23 213.29 107.23 213.29 88.71 302.95 88.71 315.88 65.55 183.42 65"/>
      <polygon class="cls-1" points="353.56 65.25 340.18 87.98 410.29 87.98 410.29 100.06 400.3 106.99 343.89 106.99 312.62 127.46 289.09 173.38 416.25 173.38 435.92 148.25 332.61 148.09 337.12 138.26 346.63 131.65 403.2 131.49 430.6 110.22 441.4 84.59 430.11 65.25 353.56 65.25"/>
      <polygon class="cls-1" points="461.41 65 461.41 173.63 497.35 173.63 593.75 65 561.2 65 489.77 142.06 489.77 65 461.41 65"/>
    </g>
    <g>
      <path class="cls-1" d="M8.19,239.65l21.96-35.91h8.41l6.82,35.91h-7.49l-1.64-9.44h-14.57l-5.49,9.44h-8ZM25.17,224.26h10.11l-2.31-13.23-7.8,13.23Z"/>
      <path class="cls-1" d="M47.94,239.65l7.64-35.91,7.18-1.54-7.95,37.45h-6.87Z"/>
      <path class="cls-1" d="M65.28,239.65l-1.59-26.73h6.41l.67,17.24,8.82-17.24h5.8l1.54,17.24,8-17.24h6.57l-12.88,26.73h-6.62l-1.44-17.13-8.72,17.13h-6.57Z"/>
      <path class="cls-1" d="M108.68,239.96c-2.77,0-4.98-.68-6.62-2.03-1.64-1.35-2.46-3.16-2.46-5.41,0-1.85.45-3.42,1.36-4.72.91-1.3,2.2-2.31,3.87-3.03,1.68-.72,3.68-1.08,6-1.08,1.26,0,2.52.12,3.77.36,1.25.24,2.42.58,3.51,1.03l.31-1.39c.38-1.81.11-3.17-.79-4.08-.91-.91-2.45-1.36-4.64-1.36-.99,0-2.08.14-3.26.41-1.18.27-2.61.72-4.28,1.33l-1.69-5.28c1.98-.79,3.86-1.36,5.64-1.72,1.78-.36,3.47-.54,5.08-.54,2.7,0,4.93.44,6.69,1.33,1.76.89,3,2.16,3.72,3.82.72,1.66.82,3.65.31,5.98l-3.39,16.06h-6.77l.31-1.64c-1.06.65-2.14,1.14-3.23,1.46-1.09.33-2.24.49-3.44.49ZM111.04,234.98c.96,0,1.88-.13,2.77-.38.89-.26,1.73-.62,2.51-1.1l.87-3.9c-1.78-.85-3.73-1.28-5.85-1.28-1.61,0-2.88.33-3.82.97-.94.65-1.41,1.52-1.41,2.62,0,.96.44,1.71,1.31,2.26.87.55,2.08.82,3.62.82Z"/>
      <path class="cls-1" d="M127.55,250.63c-.75,0-1.46-.04-2.13-.13-.67-.09-1.31-.21-1.92-.38l1.23-6c.34.1.72.18,1.13.23.41.05.87.08,1.39.08,1.2,0,2.26-.27,3.21-.82.94-.55,1.77-1.38,2.49-2.51l.92-1.44-4.62-26.73h7.34l2.77,18.77,11.49-18.77h7.54l-18.88,30.01c-1.71,2.74-3.5,4.7-5.36,5.9-1.86,1.2-4.06,1.8-6.59,1.8Z"/>
      <path class="cls-1" d="M168.44,240.22c-2.46,0-4.82-.41-7.08-1.23-2.26-.82-4.12-1.93-5.59-3.33l3.95-4.46c1.44,1.23,2.88,2.15,4.33,2.77,1.45.62,2.93.92,4.44.92,1.4,0,2.54-.27,3.41-.82.87-.55,1.31-1.25,1.31-2.1,0-.62-.24-1.11-.72-1.49-.48-.38-1.21-.68-2.21-.92l-4.92-1.08c-2.19-.48-3.86-1.33-5-2.57-1.15-1.23-1.72-2.79-1.72-4.67s.43-3.36,1.28-4.64c.85-1.28,2.08-2.28,3.67-3,1.59-.72,3.46-1.08,5.62-1.08s4.22.35,6.21,1.05c1.98.7,3.76,1.72,5.34,3.05l-3.85,4.26c-1.33-1.03-2.69-1.8-4.08-2.33-1.38-.53-2.74-.8-4.08-.8-1.23,0-2.21.24-2.92.72-.72.48-1.08,1.13-1.08,1.95,0,.65.25,1.17.74,1.56.5.39,1.31.71,2.44.95l4.87,1.08c2.26.48,3.98,1.33,5.18,2.57,1.2,1.23,1.8,2.75,1.8,4.57,0,1.71-.5,3.25-1.49,4.62-.99,1.37-2.34,2.45-4.05,3.26-1.71.8-3.64,1.2-5.8,1.2Z"/>
      <path class="cls-1" d="M195.78,239.65l4.41-20.88h-5.8l1.23-5.85h5.8l.72-3.28c.62-2.77,1.83-4.89,3.64-6.36,1.81-1.47,4.15-2.21,7.03-2.21.85,0,1.75.07,2.69.21.94.14,1.7.34,2.28.62l-1.18,5.85c-.58-.21-1.16-.36-1.74-.46s-1.2-.15-1.85-.15c-1.16,0-2.08.26-2.74.77-.67.51-1.12,1.32-1.36,2.41l-.56,2.62h7.08l-1.23,5.85h-7.08l-4.46,20.88h-6.87Z"/>
      <path class="cls-1" d="M224.04,240.06c-2.09,0-3.86-.49-5.31-1.46-1.45-.97-2.47-2.3-3.05-3.98-.58-1.68-.65-3.59-.2-5.75l3.39-15.95h6.87l-3.23,15.29c-.38,1.78-.15,3.21.69,4.28.84,1.08,2.11,1.62,3.82,1.62,1.09,0,2.11-.21,3.05-.64.94-.43,1.79-1.03,2.54-1.82l4-18.72h6.87l-5.69,26.73h-6.87l.41-1.95c-2.22,1.57-4.65,2.36-7.28,2.36Z"/>
      <path class="cls-1" d="M243.23,239.65l5.69-26.73h6.87l-.56,2.67c.99-1.03,2.09-1.81,3.28-2.36,1.2-.55,2.46-.82,3.8-.82,1.47,0,2.58.24,3.33.72l-1.28,6.16c-.34-.24-.89-.45-1.64-.64-.75-.19-1.47-.28-2.15-.28-2.67,0-4.91,1.21-6.72,3.64l-3.69,17.65h-6.92Z"/>
      <path class="cls-1" d="M276.98,240.01c-3.01,0-5.17-.72-6.49-2.15-1.32-1.44-1.68-3.49-1.1-6.16l2.72-12.93h-5.39l1.23-5.85h5.39l1.44-6.82,7.23-1.59-1.79,8.41h7.44l-1.23,5.85h-7.44l-2.57,11.75c-.24,1.3-.1,2.23.41,2.8.51.56,1.5.85,2.98.85.55,0,1.08-.03,1.59-.1.51-.07,1.08-.17,1.69-.31l-1.23,5.69c-.62.14-1.38.26-2.31.38-.92.12-1.78.18-2.56.18Z"/>
      <path class="cls-1" d="M285.44,239.65l7.64-35.91,7.18-1.54-2.67,12.67c2.19-1.57,4.6-2.36,7.23-2.36,2.12,0,3.91.49,5.36,1.46,1.45.97,2.47,2.3,3.05,3.98.58,1.68.65,3.59.2,5.74l-3.39,15.95h-6.92l3.28-15.29c.34-1.78.1-3.21-.72-4.28-.82-1.08-2.09-1.62-3.8-1.62-1.1,0-2.11.21-3.05.62-.94.41-1.79,1.03-2.54,1.85l-4,18.72h-6.87Z"/>
      <path class="cls-1" d="M330.32,240.16c-2.6,0-4.92-.54-6.95-1.62-2.03-1.08-3.63-2.58-4.8-4.51-1.16-1.93-1.74-4.11-1.74-6.54,0-2.05.38-3.98,1.13-5.8.75-1.81,1.79-3.41,3.13-4.8,1.33-1.38,2.87-2.46,4.62-3.23,1.74-.77,3.61-1.15,5.59-1.15,2.36,0,4.44.56,6.26,1.67,1.81,1.11,3.23,2.63,4.26,4.54,1.03,1.92,1.54,4.14,1.54,6.67,0,.38,0,.79-.03,1.23-.02.44-.1,1.11-.23,2h-19.39c.21,1.13.63,2.13,1.28,3,.65.87,1.48,1.55,2.49,2.03,1.01.48,2.15.72,3.41.72,1.13,0,2.19-.17,3.18-.51.99-.34,1.86-.82,2.62-1.44l3.85,4.46c-1.64,1.16-3.27,2-4.87,2.51s-3.39.77-5.33.77ZM324.12,223.65h12.77c-.2-1.06-.58-1.98-1.13-2.77-.55-.79-1.23-1.4-2.05-1.85-.82-.44-1.74-.67-2.77-.67s-1.99.22-2.9.67c-.91.44-1.69,1.06-2.36,1.85-.67.79-1.19,1.71-1.56,2.77Z"/>
      <path class="cls-1" d="M344.79,239.65l5.69-26.73h6.87l-.56,2.67c.99-1.03,2.09-1.81,3.28-2.36,1.2-.55,2.46-.82,3.8-.82,1.47,0,2.58.24,3.33.72l-1.28,6.16c-.34-.24-.89-.45-1.64-.64-.75-.19-1.47-.28-2.15-.28-2.67,0-4.91,1.21-6.72,3.64l-3.69,17.65h-6.92Z"/>
      <path class="cls-1" d="M356.02,247.4l6.31-13.49h7.13l-8.21,13.49h-5.23Z"/>
      <path class="cls-1" d="M396.14,240.01c-3.01,0-5.17-.72-6.49-2.15-1.32-1.44-1.68-3.49-1.1-6.16l2.72-12.93h-5.39l1.23-5.85h5.39l1.44-6.82,7.23-1.59-1.79,8.41h7.44l-1.23,5.85h-7.44l-2.57,11.75c-.24,1.3-.1,2.23.41,2.8.51.56,1.5.85,2.98.85.55,0,1.08-.03,1.59-.1.51-.07,1.08-.17,1.69-.31l-1.23,5.69c-.62.14-1.38.26-2.31.38-.92.12-1.78.18-2.56.18Z"/>
      <path class="cls-1" d="M419.58,240.16c-2.5,0-4.74-.56-6.72-1.69-1.98-1.13-3.55-2.67-4.69-4.62-1.15-1.95-1.72-4.12-1.72-6.51,0-2.05.39-3.98,1.15-5.77.77-1.79,1.85-3.38,3.23-4.74,1.38-1.37,2.98-2.45,4.8-3.23,1.81-.79,3.73-1.18,5.75-1.18,2.5,0,4.73.56,6.69,1.69,1.97,1.13,3.53,2.66,4.69,4.59,1.16,1.93,1.74,4.11,1.74,6.54,0,2.05-.39,3.98-1.18,5.77-.79,1.79-1.87,3.38-3.26,4.74-1.38,1.37-2.97,2.45-4.74,3.23-1.78.79-3.69,1.18-5.75,1.18ZM419.89,234.06c1.09,0,2.11-.22,3.05-.67.94-.44,1.77-1.05,2.49-1.82.72-.77,1.28-1.68,1.69-2.72.41-1.04.62-2.13.62-3.26,0-1.4-.29-2.63-.87-3.69-.58-1.06-1.38-1.89-2.39-2.49-1.01-.6-2.16-.9-3.46-.9-1.06,0-2.06.22-3,.67-.94.44-1.78,1.05-2.51,1.82-.74.77-1.3,1.68-1.69,2.72-.39,1.04-.59,2.13-.59,3.26,0,1.37.28,2.59.85,3.67.56,1.08,1.35,1.92,2.36,2.51,1.01.6,2.16.9,3.46.9Z"/>
      <path class="cls-1" d="M449.43,250.58c-2.22,0-4.45-.33-6.67-.97-2.22-.65-4.15-1.56-5.8-2.72l3.18-5.23c1.5.99,3.03,1.75,4.57,2.28,1.54.53,3.04.8,4.51.8,3.35,0,5.35-1.57,6-4.72l.36-1.8c-1.88,1.06-3.92,1.59-6.1,1.59s-4.23-.53-6.03-1.59c-1.79-1.06-3.21-2.52-4.23-4.39-1.03-1.86-1.54-3.96-1.54-6.28,0-2.09.38-4.04,1.15-5.85.77-1.81,1.83-3.4,3.18-4.77,1.35-1.37,2.92-2.44,4.72-3.21,1.79-.77,3.7-1.15,5.72-1.15,1.57,0,3.04.23,4.41.69,1.37.46,2.57,1.15,3.59,2.08l.51-2.41h6.87l-5.85,27.85c-.68,3.18-2.09,5.61-4.23,7.28-2.14,1.68-4.92,2.51-8.34,2.51ZM451.33,233.96c2.09,0,3.95-.67,5.59-2l2.26-10.62c-.72-.82-1.64-1.49-2.77-2-1.13-.51-2.36-.77-3.69-.77-1.54,0-2.94.38-4.21,1.13-1.27.75-2.26,1.75-2.98,3-.72,1.25-1.08,2.66-1.08,4.23,0,1.33.29,2.53.87,3.59.58,1.06,1.39,1.9,2.44,2.51,1.04.62,2.23.92,3.57.92Z"/>
      <path class="cls-1" d="M482.72,240.16c-2.6,0-4.92-.54-6.95-1.62-2.04-1.08-3.63-2.58-4.8-4.51-1.16-1.93-1.74-4.11-1.74-6.54,0-2.05.38-3.98,1.13-5.8.75-1.81,1.79-3.41,3.13-4.8,1.33-1.38,2.87-2.46,4.62-3.23,1.74-.77,3.61-1.15,5.59-1.15,2.36,0,4.44.56,6.26,1.67,1.81,1.11,3.23,2.63,4.26,4.54,1.03,1.92,1.54,4.14,1.54,6.67,0,.38,0,.79-.03,1.23-.02.44-.1,1.11-.23,2h-19.39c.21,1.13.63,2.13,1.28,3,.65.87,1.48,1.55,2.49,2.03,1.01.48,2.15.72,3.41.72,1.13,0,2.19-.17,3.18-.51.99-.34,1.86-.82,2.62-1.44l3.85,4.46c-1.64,1.16-3.27,2-4.87,2.51-1.61.51-3.39.77-5.33.77ZM476.52,223.65h12.77c-.2-1.06-.58-1.98-1.13-2.77-.55-.79-1.23-1.4-2.05-1.85-.82-.44-1.74-.67-2.77-.67s-1.99.22-2.9.67c-.91.44-1.69,1.06-2.36,1.85-.67.79-1.19,1.71-1.56,2.77Z"/>
      <path class="cls-1" d="M508.78,240.01c-3.01,0-5.17-.72-6.49-2.15-1.32-1.44-1.68-3.49-1.1-6.16l2.72-12.93h-5.39l1.23-5.85h5.39l1.44-6.82,7.23-1.59-1.79,8.41h7.44l-1.23,5.85h-7.44l-2.57,11.75c-.24,1.3-.1,2.23.41,2.8.51.56,1.5.85,2.98.85.55,0,1.08-.03,1.59-.1.51-.07,1.08-.17,1.69-.31l-1.23,5.69c-.62.14-1.38.26-2.31.38-.92.12-1.78.18-2.56.18Z"/>
      <path class="cls-1" d="M517.25,239.65l7.64-35.91,7.18-1.54-2.67,12.67c2.19-1.57,4.6-2.36,7.23-2.36,2.12,0,3.91.49,5.36,1.46,1.45.97,2.47,2.3,3.05,3.98.58,1.68.65,3.59.2,5.74l-3.39,15.95h-6.92l3.28-15.29c.34-1.78.1-3.21-.72-4.28-.82-1.08-2.09-1.62-3.8-1.62-1.1,0-2.11.21-3.05.62-.94.41-1.79,1.03-2.54,1.85l-4,18.72h-6.87Z"/>
      <path class="cls-1" d="M562.13,240.16c-2.6,0-4.92-.54-6.95-1.62-2.04-1.08-3.63-2.58-4.8-4.51-1.16-1.93-1.74-4.11-1.74-6.54,0-2.05.38-3.98,1.13-5.8.75-1.81,1.79-3.41,3.13-4.8,1.33-1.38,2.87-2.46,4.62-3.23,1.74-.77,3.61-1.15,5.59-1.15,2.36,0,4.44.56,6.26,1.67,1.81,1.11,3.23,2.63,4.26,4.54,1.03,1.92,1.54,4.14,1.54,6.67,0,.38,0,.79-.03,1.23-.02.44-.1,1.11-.23,2h-19.39c.21,1.13.63,2.13,1.28,3,.65.87,1.48,1.55,2.49,2.03,1.01.48,2.15.72,3.41.72,1.13,0,2.19-.17,3.18-.51.99-.34,1.86-.82,2.62-1.44l3.85,4.46c-1.64,1.16-3.27,2-4.87,2.51-1.61.51-3.39.77-5.33.77ZM555.92,223.65h12.77c-.2-1.06-.58-1.98-1.13-2.77-.55-.79-1.23-1.4-2.05-1.85-.82-.44-1.74-.67-2.77-.67s-1.99.22-2.9.67c-.91.44-1.69,1.06-2.36,1.85-.67.79-1.19,1.71-1.56,2.77Z"/>
      <path class="cls-1" d="M576.6,239.65l5.69-26.73h6.87l-.56,2.67c.99-1.03,2.09-1.81,3.28-2.36,1.2-.55,2.46-.82,3.8-.82,1.47,0,2.58.24,3.33.72l-1.28,6.16c-.34-.24-.89-.45-1.64-.64-.75-.19-1.47-.28-2.15-.28-2.67,0-4.91,1.21-6.72,3.64l-3.69,17.65h-6.92Z"/>
    </g>
  </g>
  <g>
    <path class="cls-1" d="M966.19,125l-38.52-26.47c-.4-.27-.67-.69-.76-1.16l-.66-3.31c-.12-.62-.49-1.16-1.02-1.5l-28.88-18.54,1.27-2.44c.91-1.76.55-3.91-.9-5.27l-27.4-25.8c-.69-.65-1.58-1.06-2.52-1.18l-84.02-9.96c-1.49-.18-2.4,1.58-1.41,2.7l5.32,6c.84.95,1.88,1.69,3.05,2.16l55.23,22.56-62.27-19.59c-1.4-.44-2.91-.4-4.29.11l-48.22,18.04c-1.46.55-1.23,2.67.3,2.9l74.53,11.18-58.88-2.53c-1.11-.05-2.19.37-2.97,1.15l-36.22,35.92c-2.93,2.91-.05,7.8,3.92,6.64l98.57-28.74-89.03,39.13c-1.43.63-2.44,1.95-2.67,3.49l-6.33,42.77c-.58,3.93,3.81,6.66,7.07,4.4l102.39-70.73-19.87,23.68-57.84,39.68c-2.47,1.7-3.52,4.83-2.57,7.67l11.23,33.56c1.53,4.56,7.21,6.09,10.82,2.91l50.32-44.37c.98-.87,1.76-1.94,2.28-3.14l20.28-46.75-9.63,49.78-34.67,35.03c-1.76,1.78-1.63,4.68.28,6.3l36.17,30.5c2.09,1.76,5.28,1.15,6.56-1.27l25.64-48.49c.48-.91.64-1.95.44-2.95l-11.14-58.26,18.22,60.68c.24.81.19,1.69-.15,2.47l-11.28,25.67c-1.32,3.11-.71,6.71,1.58,9.2l23.34,25.43c1.98,2.15,5.52,1.54,6.66-1.15l16.6-39.13c.77-1.82.63-3.9-.38-5.61l-21.88-36.83,12.39,8.97,8.69,3.68,30.71,12.73c1.26.52,2.72.03,3.4-1.16l14.27-25.02-1-15.05,4.22-3.81,11.64-26.9ZM934.88,188.63l-5.42-11.44-18.06-7.23,30.91-11.64,3.21,11.64-10.64,18.67ZM946.12,149.49l-34.72,11.84-22.48-12.44,5.22-13.65-50.98-26.29,17.07-13.2c1.12-.86.96-2.6-.3-3.25l-30.61-15.82c-1.29-.66-2.82.27-2.82,1.72v8.98c0,.59.12,1.17.36,1.7l7.26,16.25-13.84-13.84c-.91-.91-1.42-2.14-1.42-3.42v-18.81c0-1.58,1.58-2.67,3.06-2.1l47.52,18.29-6.42-12.44,31.11,5.22,22.89,14.58c1.13.72,1.51,2.18.88,3.36l-.76,1.41c-.63,1.18-.2,2.64.96,3.29l38.65,21.51-17.36,1.27c-1.81.13-2.65,2.31-1.4,3.62l12.33,12.97-4.22,9.23Z"/>
    <polygon class="cls-1" points="879.28 96.7 912.4 99.31 911.4 102.92 917.82 111.55 907.58 106.74 903.17 110.55 879.28 96.7"/>
  </g>
</svg>
